<svg width="11" height="11" viewBox="0 0 11 11" fill="none" xmlns="http://www.w3.org/2000/svg">
<path d="M0.846218 6.44868C-0.0654785 6.14478 -0.065479 4.85522 0.846217 4.55132L3.15079 3.78313C3.44937 3.6836 3.68367 3.44931 3.78322 3.15074L4.55163 0.846086C4.85559 -0.0655882 6.14516 -0.0654926 6.44899 0.846226L7.21694 3.15062C7.31646 3.44926 7.5508 3.68361 7.84944 3.78315L10.1541 4.55131C11.0658 4.85519 11.0658 6.14481 10.1541 6.44869L7.84939 7.21687C7.55078 7.3164 7.31645 7.55072 7.21691 7.84933L6.44874 10.1538C6.14484 11.0655 4.85528 11.0655 4.55138 10.1538L3.7832 7.84932C3.68367 7.55071 3.44935 7.31639 3.15074 7.21686L0.846218 6.44868Z" fill="white"/>
</svg>
